<svg width="14" height="11" viewBox="0 0 14 11" fill="none" xmlns="http://www.w3.org/2000/svg">
<path d="M1.4 11C1.015 11 0.685301 10.8652 0.410901 10.5957C0.136501 10.3262 -0.000465478 10.0027 1.18846e-06 9.625V1.375C1.18846e-06 0.996876 0.137201 0.673063 0.411601 0.403563C0.686001 0.134064 1.01547 -0.000457166 1.4 1.16723e-06H12.6C12.985 1.16723e-06 13.3147 0.134751 13.5891 0.404251C13.8635 0.673751 14.0005 0.997334 14 1.375V9.625C14 10.0031 13.8628 10.3269 13.5884 10.5964C13.314 10.8659 12.9845 11.0005 12.6 11H1.4ZM7 6.1875L1.4 2.75V9.625H12.6V2.75L7 6.1875ZM7 4.8125L12.6 1.375H1.4L7 4.8125ZM1.4 2.75V1.375V9.625V2.75Z" fill="#FF3427"/>
</svg>
