<svg width="80" height="80" viewBox="0 0 80 80" fill="none" xmlns="http://www.w3.org/2000/svg">
<rect x="1" y="1" width="78" height="78" rx="39" fill="#EFEFF0"/>
<rect x="1" y="1" width="78" height="78" rx="39" stroke="#AFB1B6" stroke-width="2"/>
<mask id="mask0_1583_5168" style="mask-type:luminance" maskUnits="userSpaceOnUse" x="30" y="30" width="20" height="20">
<path fill-rule="evenodd" clip-rule="evenodd" d="M30 30H49.9596V49.9498H30V30Z" fill="white"/>
</mask>
<g mask="url(#mask0_1583_5168)">
<path fill-rule="evenodd" clip-rule="evenodd" d="M35.65 31.5C33.129 31.5 31.5 33.227 31.5 35.899V44.051C31.5 46.724 33.129 48.45 35.65 48.45H44.3C46.827 48.45 48.46 46.724 48.46 44.051V35.899C48.46 33.227 46.827 31.5 44.3 31.5H35.65ZM44.3 49.95H35.65C32.27 49.95 30 47.579 30 44.051V35.899C30 32.371 32.27 30 35.65 30H44.3C47.685 30 49.96 32.371 49.96 35.899V44.051C49.96 47.579 47.685 49.95 44.3 49.95Z" fill="#AFB1B6"/>
</g>
<path fill-rule="evenodd" clip-rule="evenodd" d="M33.2813 45.1799C33.0953 45.1799 32.9103 45.1119 32.7653 44.9739C32.4643 44.6899 32.4523 44.2139 32.7373 43.9149L34.2653 42.3019C35.0743 41.4429 36.4393 41.4009 37.3023 42.2109L38.2603 43.1829C38.5273 43.4529 38.9613 43.4579 39.2293 43.1939C39.3303 43.0749 41.5083 40.4299 41.5083 40.4299C41.9223 39.9279 42.5063 39.6179 43.1553 39.5539C43.8053 39.4969 44.4363 39.6859 44.9393 40.0989C44.9823 40.1339 45.0213 40.1679 47.2173 42.4229C47.5063 42.7189 47.5013 43.1939 47.2043 43.4829C46.9083 43.7739 46.4323 43.7649 46.1433 43.4689C46.1433 43.4689 44.0943 41.3659 43.9483 41.2239C43.7933 41.0969 43.5443 41.0229 43.2993 41.0469C43.0503 41.0719 42.8263 41.1909 42.6673 41.3839C40.3433 44.2029 40.3153 44.2299 40.2773 44.2669C39.4193 45.1089 38.0343 45.0949 37.1913 44.2349C37.1913 44.2349 36.2613 43.2909 36.2453 43.2719C36.0143 43.0579 35.6023 43.0719 35.3553 43.3329L33.8253 44.9459C33.6773 45.1019 33.4793 45.1799 33.2813 45.1799Z" fill="#AFB1B6"/>
<path fill-rule="evenodd" clip-rule="evenodd" d="M36.5577 36.1289C36.0047 36.1289 35.5547 36.5789 35.5547 37.1329C35.5547 37.6869 36.0047 38.1379 36.5587 38.1379C37.1127 38.1379 37.5637 37.6869 37.5637 37.1329C37.5637 36.5799 37.1127 36.1299 36.5577 36.1289ZM36.5587 39.6379C35.1777 39.6379 34.0547 38.5139 34.0547 37.1329C34.0547 35.7519 35.1777 34.6289 36.5587 34.6289C37.9407 34.6299 39.0637 35.7539 39.0637 37.1329C39.0637 38.5139 37.9397 39.6379 36.5587 39.6379Z" fill="#AFB1B6"/>
</svg>
