<svg width="40" height="40" viewBox="0 0 40 40" fill="none" xmlns="http://www.w3.org/2000/svg">
<path d="M18.8889 23.3333H25.5556V25.5556H18.8889V23.3333ZM16.6667 14.4444H14.4444V16.6667H16.6667V14.4444ZM18.8889 21.1111H25.5556V18.8889H18.8889V21.1111ZM18.8889 16.6667H25.5556V14.4444H18.8889V16.6667ZM16.6667 18.8889H14.4444V21.1111H16.6667V18.8889ZM30 12.2222V27.7778C30 29 29 30 27.7778 30H12.2222C11 30 10 29 10 27.7778V12.2222C10 11 11 10 12.2222 10H27.7778C29 10 30 11 30 12.2222ZM27.7778 12.2222H12.2222V27.7778H27.7778V12.2222ZM16.6667 23.3333H14.4444V25.5556H16.6667V23.3333Z" fill="#262424"/>
</svg>
