<svg width="48" height="48" viewBox="0 0 48 48" fill="none" xmlns="http://www.w3.org/2000/svg">
<path d="M22.6667 28H30.6667V30.6667H22.6667V28ZM20 17.3333H17.3333V20H20V17.3333ZM22.6667 25.3333H30.6667V22.6667H22.6667V25.3333ZM22.6667 20H30.6667V17.3333H22.6667V20ZM20 22.6667H17.3333V25.3333H20V22.6667ZM36 14.6667V33.3333C36 34.8 34.8 36 33.3333 36H14.6667C13.2 36 12 34.8 12 33.3333V14.6667C12 13.2 13.2 12 14.6667 12H33.3333C34.8 12 36 13.2 36 14.6667ZM33.3333 14.6667H14.6667V33.3333H33.3333V14.6667ZM20 28H17.3333V30.6667H20V28Z" fill="#262424"/>
</svg>
