<svg width="108" height="29" viewBox="0 0 108 29" fill="none" xmlns="http://www.w3.org/2000/svg">
<path d="M13.9507 9.75768C13.9507 10.3392 13.7697 10.8766 13.4078 11.37H8.95665C9.1014 11.2643 9.17378 11.0881 9.17378 10.8414C9.17378 10.5947 9.02903 10.4009 8.73952 10.2599C8.45001 10.1013 8.07908 10.022 7.62672 10.022C6.26965 10.022 5.59112 10.4273 5.59112 11.2379C5.59112 11.555 5.84444 11.7841 6.35108 11.9251C6.85772 12.0661 7.47292 12.1806 8.19669 12.2687C8.92046 12.3568 9.64423 12.489 10.368 12.6652C11.0918 12.8238 11.707 13.1498 12.2136 13.6431C12.7203 14.1365 12.9736 14.7973 12.9736 15.6255C12.9736 17.0881 12.3674 18.1982 11.1551 18.9559C9.96088 19.7136 8.21479 20.0925 5.91682 20.0925C3.61885 20.0925 2.00846 19.7313 1.08565 19.0088C0.361885 18.4449 0 17.6696 0 16.6828C0 16.4009 0.0271414 16.1101 0.0814241 15.8106L4.61403 15.7577C4.57784 16.0044 4.7226 16.2247 5.04829 16.4185C5.39208 16.5947 5.88968 16.6828 6.54107 16.6828C7.19246 16.6828 7.66291 16.6211 7.95242 16.4978C8.24193 16.3568 8.38668 16.1013 8.38668 15.7313C8.38668 15.4846 8.13336 15.3172 7.62672 15.2291C7.12008 15.1233 6.49583 15.0352 5.75397 14.9647C5.0302 14.8943 4.29738 14.7797 3.55552 14.6211C2.83175 14.4625 2.21654 14.1277 1.70991 13.6167C1.20327 13.1057 0.949948 12.4361 0.949948 11.6079C0.949948 10.0044 1.58325 8.77089 2.84984 7.90745C4.13453 7.04402 5.98015 6.6123 8.38668 6.6123C12.096 6.6123 13.9507 7.66076 13.9507 9.75768Z" fill="#262424"/>
<path d="M24.0154 11.6079C24.0154 10.8502 23.6355 10.4713 22.8755 10.4713C22.1336 10.4713 21.5184 10.7445 21.0299 11.2907L19.51 19.7225H14.8959L17.203 7.00877H21.4913L21.1927 8.56825C22.2603 7.2819 23.6083 6.63873 25.2368 6.63873C26.8653 6.63873 27.9238 7.02639 28.4123 7.80173C28.7199 8.29512 28.8737 8.859 28.8737 9.49336C28.8737 10.1277 28.8285 10.718 28.738 11.2643L28.0052 15.3348C27.9871 15.4405 27.9781 15.5374 27.9781 15.6255C27.9781 16.1013 28.2495 16.3392 28.7923 16.3392C29.2085 16.3392 29.5794 16.2511 29.9051 16.0749L29.7694 19.0617C28.919 19.7489 27.9509 20.0925 26.8653 20.0925C24.4045 20.0925 23.1741 19.0881 23.1741 17.0793C23.1741 16.7269 23.2102 16.348 23.2826 15.9427L23.934 12.4273C23.9883 12.1101 24.0154 11.837 24.0154 11.6079Z" fill="#262424"/>
<path d="M44.2264 15.652C44.2264 16.1101 44.4617 16.3392 44.9321 16.3392C45.4206 16.3392 45.8278 16.2511 46.1535 16.0749L46.0178 19.0617C45.1492 19.7489 44.1721 20.0925 43.0865 20.0925C41.0961 20.0925 39.9924 19.3877 39.7752 17.978C38.8705 19.3877 37.5406 20.0925 35.7855 20.0925C32.818 20.0925 31.3343 18.8502 31.3343 16.3656C31.3343 15.9427 31.3795 15.4757 31.47 14.9647L32.04 11.8722C32.3295 10.2863 32.9899 9.0264 34.0213 8.09248C35.0707 7.14093 36.4278 6.66516 38.0925 6.66516C39.7752 6.66516 40.9152 7.04402 41.5123 7.80173L41.648 7.00877H45.7735L44.2536 15.3348C44.2355 15.4405 44.2264 15.5462 44.2264 15.652ZM36.1926 14.3832C36.1564 14.5418 36.1383 14.7621 36.1383 15.044C36.1383 15.326 36.274 15.6079 36.5454 15.8898C36.8168 16.1542 37.2692 16.2863 37.9025 16.2863C38.5539 16.2863 39.1148 16.0396 39.5852 15.5462L40.3995 11.1057C40.2005 10.6652 39.73 10.4449 38.9881 10.4449C37.5949 10.4449 36.7806 11.0969 36.5454 12.4009L36.1926 14.3832Z" fill="#262424"/>
<path d="M57.2424 6.66516C59.088 6.66516 60.3637 7.14093 61.0693 8.09248C61.576 8.74446 61.8293 9.57265 61.8293 10.5771C61.8293 10.9823 61.7841 11.4141 61.6936 11.8722L61.1508 14.9647C60.8432 16.6387 60.1827 17.9163 59.1694 18.7973C58.1562 19.6608 56.8896 20.0925 55.3696 20.0925C53.8497 20.0925 52.7912 19.696 52.1941 18.9031L50.7285 27.0705H46.1144L49.7514 7.00877H53.9312L53.7954 7.72243C54.6459 7.01758 55.7949 6.66516 57.2424 6.66516ZM54.4197 16.2863C54.9263 16.2863 55.3968 16.1277 55.8311 15.8106C56.2653 15.4934 56.5367 15.0176 56.6453 14.3832L56.9981 12.4009C57.0343 12.2246 57.0524 12.0044 57.0524 11.7401C57.0524 11.4757 56.9348 11.1938 56.6996 10.8942C56.4643 10.5947 56.0572 10.4449 55.4782 10.4449C54.5373 10.4449 53.9221 10.6652 53.6326 11.1057L52.8184 15.5462C53.0717 16.0396 53.6055 16.2863 54.4197 16.2863Z" fill="#262424"/>
<path d="M75.2689 20.1982C75.2689 22.7709 74.5904 24.8766 73.2333 26.5154C71.8944 28.1718 70.0668 29 67.7508 29C65.4528 29 63.9238 28.4449 63.1639 27.3348C62.6934 26.63 62.4582 25.7665 62.4582 24.7445C62.4582 23.7401 62.5487 22.7357 62.7296 21.7313L66.2037 2.59467H70.8177L70.0035 7.00877H76.7617L76.0832 10.7357H70.7635C72.0482 11.7401 73.1157 13.044 73.9661 14.6476C74.8347 16.2511 75.2689 18.1013 75.2689 20.1982ZM68.4564 25.2203C69.0174 25.2203 69.4969 24.7797 69.8949 23.8987C70.293 23.0176 70.4921 21.8546 70.4921 20.4097C70.4921 18.9824 70.3382 17.5374 70.0306 16.0749C69.7411 14.6123 69.3883 13.4669 68.9721 12.6387L67.3437 21.7048C67.2351 22.3216 67.1808 22.859 67.1808 23.3172C67.1808 24.5859 67.606 25.2203 68.4564 25.2203Z" fill="#262424"/>
<path d="M83.2635 16.3392C83.6797 16.3392 84.0506 16.2511 84.3763 16.0749L84.2406 19.0617C83.3902 19.7489 82.4222 20.0925 81.3365 20.0925C79.6899 20.0925 78.6224 19.7225 78.1338 18.9824C77.8081 18.489 77.6453 17.9691 77.6453 17.4229C77.6453 16.859 77.6815 16.3656 77.7539 15.9427L79.3823 7.00877H83.9964L82.4764 15.3348C82.4584 15.4405 82.4493 15.5374 82.4493 15.6255C82.4493 16.1013 82.7207 16.3392 83.2635 16.3392Z" fill="#262424"/>
<path d="M91.8532 20.0925C89.7542 20.0925 88.2434 19.6343 87.3205 18.718C86.633 18.0484 86.2892 17.1498 86.2892 16.022C86.2892 15.652 86.3254 15.2555 86.3977 14.8326L88.2433 4.60348L93.2102 2.59467L92.4231 7.00877H99.9141L99.2356 10.7357H91.7446L91.2017 13.7224C91.1294 14.0572 91.0932 14.3568 91.0932 14.6211C91.0932 15.7313 91.636 16.2863 92.7217 16.2863C93.3007 16.2863 93.7802 16.0484 94.1602 15.5727C94.5582 15.0969 94.8297 14.4625 94.9744 13.6696H99.4799C98.7199 17.9515 96.1777 20.0925 91.8532 20.0925Z" fill="#262424"/>
<path d="M103.133 0.804813C102.608 1.32347 102.346 2.15511 102.346 3.29973C102.346 4.58743 103.124 5.23129 104.68 5.23129C105.825 5.23129 106.659 4.97195 107.184 4.4533C107.728 3.93464 108 3.11194 108 1.9852C108 0.661734 107.212 0 105.637 0C104.512 0 103.677 0.268272 103.133 0.804813Z" fill="#FF3427"/>
</svg>
