<svg width="14" height="11" viewBox="0 0 14 11" fill="none" xmlns="http://www.w3.org/2000/svg">
<path fill-rule="evenodd" clip-rule="evenodd" d="M0.411381 10.0195C0.685775 10.262 1.01547 10.3833 1.40046 10.3833H12.6002C12.9847 10.3837 13.3142 10.2626 13.5886 10.0202C13.863 9.77767 14.0002 9.48632 14.0002 9.14611V2.65106C14.0006 2.31126 13.8637 2.02012 13.5893 1.77764C13.3149 1.53515 12.9852 1.41391 12.6002 1.41391H10.3952L9.51957 0.578836C9.3917 0.445223 9.23724 0.344808 9.05618 0.277589C8.87512 0.210371 8.68542 0.176762 8.48709 0.176762H5.51216C5.31477 0.176349 5.12554 0.209752 4.94447 0.276971C4.76341 0.344189 4.60872 0.444811 4.48039 0.578836L3.60541 1.41391H1.40046C1.01593 1.4135 0.686475 1.53453 0.412081 1.77702C0.137687 2.0195 0.000489464 2.31085 0.000489464 2.65106V9.14611C2.39963e-05 9.48591 0.136987 9.77705 0.411381 10.0195ZM7.00072 8.00948C8.22899 8.00948 9.22469 7.01378 9.22469 5.78552C9.22469 4.55725 8.22899 3.56155 7.00072 3.56155C5.77246 3.56155 4.77676 4.55725 4.77676 5.78552C4.77676 7.01378 5.77246 8.00948 7.00072 8.00948Z" fill="#FF3427"/>
</svg>
