<svg width="223" height="61" viewBox="0 0 223 61" fill="none" xmlns="http://www.w3.org/2000/svg">
<path d="M29.1572 20.6316C29.1572 21.8516 28.7852 22.9791 28.0411 24.0141H18.8893C19.1869 23.7923 19.3358 23.4227 19.3358 22.9051C19.3358 22.3876 19.0381 21.9809 18.4429 21.6852C17.8477 21.3525 17.085 21.1861 16.1549 21.1861C13.3648 21.1861 11.9697 22.0364 11.9697 23.7369C11.9697 24.4023 12.4905 24.8829 13.5322 25.1786C14.5738 25.4743 15.8387 25.7146 17.3268 25.8995C18.8149 26.0843 20.303 26.3616 21.7911 26.7312C23.2792 27.0639 24.5441 27.7478 25.5858 28.7829C26.6274 29.818 27.1483 31.2043 27.1483 32.9417C27.1483 36.01 25.902 38.3389 23.4094 39.9285C20.9541 41.5181 17.364 42.3129 12.6393 42.3129C7.91461 42.3129 4.60359 41.5551 2.70627 40.0394C1.21817 38.8565 0.474121 37.2299 0.474121 35.1598C0.474121 34.5683 0.529925 33.9583 0.641532 33.3299L9.96074 33.219C9.88634 33.7365 10.184 34.1986 10.8536 34.6052C11.5604 34.9749 12.5835 35.1598 13.9228 35.1598C15.2621 35.1598 16.2293 35.0304 16.8246 34.7716C17.4198 34.4759 17.7174 33.9398 17.7174 33.1635C17.7174 32.646 17.1966 32.2948 16.1549 32.11C15.1133 31.8882 13.8298 31.7033 12.3045 31.5555C10.8164 31.4076 9.3097 31.1673 7.7844 30.8346C6.2963 30.5019 5.03142 29.7995 3.98975 28.7275C2.94808 27.6554 2.42725 26.2507 2.42725 24.5132C2.42725 21.1492 3.72933 18.5615 6.3335 16.7501C8.97488 14.9387 12.7695 14.033 17.7174 14.033C25.3439 14.033 29.1572 16.2325 29.1572 20.6316Z" fill="#262424"/>
<path d="M49.8507 24.5132C49.8507 22.9236 49.0695 22.1288 47.507 22.1288C45.9817 22.1288 44.7168 22.7018 43.7123 23.8478L40.5873 41.5366H31.1007L35.844 14.8647H44.661L44.0472 18.1363C46.2421 15.4377 49.0137 14.0884 52.3619 14.0884C55.7101 14.0884 57.8865 14.9017 58.8909 16.5283C59.5234 17.5634 59.8396 18.7463 59.8396 20.0771C59.8396 21.4079 59.7466 22.6464 59.5606 23.7923L58.0539 32.3318C58.0167 32.5536 57.9981 32.7569 57.9981 32.9417C57.9981 33.9398 58.5561 34.4389 59.6722 34.4389C60.5278 34.4389 61.2905 34.2541 61.9601 33.8844L61.6811 40.1503C59.9326 41.5921 57.9423 42.3129 55.7101 42.3129C50.6506 42.3129 48.1208 40.2058 48.1208 35.9915C48.1208 35.2522 48.1952 34.4574 48.344 33.6071L49.6833 26.2322C49.7949 25.5668 49.8507 24.9938 49.8507 24.5132Z" fill="#262424"/>
<path d="M91.4053 32.9972C91.4053 33.9583 91.8889 34.4389 92.8562 34.4389C93.8606 34.4389 94.6977 34.2541 95.3673 33.8844L95.0883 40.1503C93.3026 41.5921 91.2937 42.3129 89.0615 42.3129C84.9693 42.3129 82.6999 40.8342 82.2535 37.8769C80.3933 40.8342 77.659 42.3129 74.0503 42.3129C67.9491 42.3129 64.8985 39.7067 64.8985 34.4943C64.8985 33.6071 64.9915 32.6275 65.1776 31.5555L66.3494 25.0677C66.9447 21.7407 68.3026 19.0975 70.4231 17.1382C72.5808 15.142 75.371 14.1439 78.7936 14.1439C82.2535 14.1439 84.5972 14.9387 85.8249 16.5283L86.1039 14.8647H94.5861L91.4611 32.3318C91.4239 32.5536 91.4053 32.7754 91.4053 32.9972ZM74.8874 30.3355C74.813 30.6682 74.7758 31.1303 74.7758 31.7218C74.7758 32.3133 75.0548 32.9048 75.6128 33.4962C76.1709 34.0507 77.1009 34.328 78.403 34.328C79.7423 34.328 80.8956 33.8105 81.8628 32.7754L83.537 23.4596C83.1277 22.5354 82.1605 22.0734 80.6352 22.0734C77.7706 22.0734 76.0965 23.4411 75.6128 26.1767L74.8874 30.3355Z" fill="#262424"/>
<path d="M118.167 14.1439C121.961 14.1439 124.584 15.142 126.035 17.1382C127.077 18.506 127.597 20.2435 127.597 22.3506C127.597 23.2009 127.504 24.1066 127.318 25.0677L126.202 31.5555C125.57 35.0673 124.212 37.7475 122.129 39.5958C120.045 41.4072 117.441 42.3129 114.316 42.3129C111.191 42.3129 109.015 41.4812 107.787 39.8176L104.774 56.9519H95.2871L102.765 14.8647H111.359L111.08 16.3619C112.828 14.8832 115.19 14.1439 118.167 14.1439ZM112.363 34.328C113.405 34.328 114.372 33.9953 115.265 33.3299C116.158 32.6645 116.716 31.6664 116.939 30.3355L117.664 26.1767C117.739 25.807 117.776 25.345 117.776 24.7904C117.776 24.2359 117.534 23.6445 117.051 23.016C116.567 22.3876 115.73 22.0734 114.539 22.0734C112.605 22.0734 111.34 22.5354 110.745 23.4596L109.071 32.7754C109.591 33.8105 110.689 34.328 112.363 34.328Z" fill="#262424"/>
<path d="M155.23 42.5347C155.23 47.9319 153.835 52.3495 151.045 55.7875C148.292 59.2624 144.534 60.9998 139.772 60.9998C135.047 60.9998 131.904 59.8354 130.341 57.5064C129.374 56.0278 128.89 54.2164 128.89 52.0723C128.89 49.9651 129.076 47.858 129.449 45.7509L136.591 5.60446H146.078L144.404 14.8647H158.299L156.904 22.6833H145.966C148.608 24.7904 150.803 27.526 152.551 30.89C154.337 34.2541 155.23 38.1356 155.23 42.5347ZM141.223 53.0704C142.376 53.0704 143.362 52.1462 144.181 50.2978C144.999 48.4495 145.408 46.0096 145.408 42.9783C145.408 39.984 145.092 36.9527 144.46 33.8844C143.864 30.8161 143.139 28.4132 142.283 26.6758L138.935 45.6954C138.712 46.9893 138.6 48.1168 138.6 49.0779C138.6 51.7396 139.475 53.0704 141.223 53.0704Z" fill="#262424"/>
<path d="M171.667 34.4389C172.523 34.4389 173.285 34.2541 173.955 33.8844L173.676 40.1503C171.927 41.5921 169.937 42.3129 167.705 42.3129C164.32 42.3129 162.125 41.5366 161.12 39.984C160.45 38.9489 160.116 37.8584 160.116 36.7124C160.116 35.5294 160.19 34.4943 160.339 33.6071L163.687 14.8647H173.174L170.049 32.3318C170.012 32.5536 169.993 32.7569 169.993 32.9417C169.993 33.9398 170.551 34.4389 171.667 34.4389Z" fill="#262424"/>
<path d="M189.328 42.3129C185.012 42.3129 181.906 41.3518 180.008 39.4295C178.595 38.0247 177.888 36.1394 177.888 33.7735C177.888 32.9972 177.962 32.1654 178.111 31.2782L181.906 9.81872L192.118 5.60446L190.499 14.8647H205.901L204.506 22.6833H189.104L187.988 28.9493C187.839 29.6516 187.765 30.2801 187.765 30.8346C187.765 33.1635 188.881 34.328 191.113 34.328C192.304 34.328 193.29 33.8289 194.071 32.8308C194.889 31.8327 195.447 30.5019 195.745 28.8384H205.008C203.446 37.8214 198.219 42.3129 189.328 42.3129Z" fill="#262424"/>
<path d="M212.52 1.84954C211.44 2.93762 210.9 4.68231 210.9 7.0836C210.9 9.78505 212.501 11.1358 215.701 11.1358C218.053 11.1358 219.769 10.5917 220.849 9.50365C221.967 8.41556 222.526 6.68963 222.526 4.32587C222.526 1.54938 220.907 0.161133 217.668 0.161133C215.354 0.161133 213.638 0.723936 212.52 1.84954Z" fill="#FF3427"/>
</svg>
