<svg width="40" height="40" viewBox="0 0 40 40" fill="none" xmlns="http://www.w3.org/2000/svg">
<path fill-rule="evenodd" clip-rule="evenodd" d="M18.7719 11.2641C19.123 10.9847 19.5551 10.833 19.9999 10.833C20.4447 10.833 20.8768 10.9847 21.2279 11.2641L29.6117 17.9349C30.3647 18.5355 29.9487 19.7684 28.9967 19.7684H27.9997V27.9534C27.9997 28.4961 27.789 29.0166 27.414 29.4003C27.0389 29.7841 26.5302 29.9997 25.9998 29.9997H14C13.4696 29.9997 12.9609 29.7841 12.5858 29.4003C12.2108 29.0166 12.0001 28.4961 12.0001 27.9534V19.7684H11.0031C10.0501 19.7684 9.63611 18.5345 10.3881 17.936L18.7719 11.2641ZM13.625 17.9523C13.854 18.1416 14 18.4312 14 18.7555V27.9534H25.9998V18.7555C25.9998 18.4312 26.1458 18.1416 26.3748 17.9523L19.9999 12.8797L13.625 17.9523Z" fill="#262424"/>
<path d="M16 20.7915C16 20.2265 16.4477 19.7684 17 19.7684H22.9998C23.5521 19.7684 23.9998 20.2265 23.9998 20.7915C23.9998 21.3566 23.5521 21.8146 22.9998 21.8146H17C16.4477 21.8146 16 21.3566 16 20.7915Z" fill="#262424"/>
<path d="M16 23.8609C16 23.2958 16.4477 22.8378 17 22.8378H22.9998C23.5521 22.8378 23.9998 23.2958 23.9998 23.8609C23.9998 24.426 23.5521 24.884 22.9998 24.884H17C16.4477 24.884 16 24.426 16 23.8609Z" fill="#262424"/>
</svg>
