<svg width="48" height="48" viewBox="0 0 48 48" fill="none" xmlns="http://www.w3.org/2000/svg">
<path fill-rule="evenodd" clip-rule="evenodd" d="M22.5263 13.5174C22.9476 13.182 23.4661 13 23.9999 13C24.5336 13 25.0522 13.182 25.4735 13.5174L35.534 21.5223C36.4376 22.243 35.9384 23.7225 34.7961 23.7225H33.5997V33.5445C33.5997 34.1957 33.3468 34.8203 32.8968 35.2808C32.4467 35.7413 31.8362 36 31.1997 36H16.8C16.1635 36 15.5531 35.7413 15.103 35.2808C14.6529 34.8203 14.4001 34.1957 14.4001 33.5445V23.7225H13.2037C12.0601 23.7225 11.5633 22.2418 12.4657 21.5235L22.5263 13.5174ZM16.35 21.5432C16.6248 21.7703 16.8 22.1178 16.8 22.507V33.5445H31.1997V22.507C31.1997 22.1178 31.3749 21.7703 31.6497 21.5432L23.9999 15.456L16.35 21.5432Z" fill="#262424"/>
<path d="M19.2 24.9502C19.2 24.2721 19.7372 23.7225 20.4 23.7225H27.5998C28.2625 23.7225 28.7998 24.2721 28.7998 24.9502C28.7998 25.6283 28.2625 26.178 27.5998 26.178H20.4C19.7372 26.178 19.2 25.6283 19.2 24.9502Z" fill="#262424"/>
<path d="M19.2 28.6335C19.2 27.9554 19.7372 27.4057 20.4 27.4057H27.5998C28.2625 27.4057 28.7998 27.9554 28.7998 28.6335C28.7998 29.3115 28.2625 29.8612 27.5998 29.8612H20.4C19.7372 29.8612 19.2 29.3115 19.2 28.6335Z" fill="#262424"/>
</svg>
