<svg width="44" height="44" viewBox="0 0 44 44" fill="none" xmlns="http://www.w3.org/2000/svg">
<path d="M27.1888 14.6207L21.9999 19.8101L16.8127 14.6216L16.8126 14.6215C16.5221 14.3311 16.1281 14.1679 15.7173 14.1679C15.3065 14.1679 14.9125 14.3311 14.622 14.6215C14.3315 14.912 14.1682 15.306 14.1682 15.7169C14.1682 16.1277 14.3314 16.5216 14.6219 16.8121C14.6219 16.8121 14.6219 16.8121 14.622 16.8122L19.8091 22.0006L14.6203 27.1876L14.6202 27.1876C14.3297 27.4781 14.1665 27.8721 14.1665 28.2829C14.1665 28.6938 14.3297 29.0877 14.6202 29.3782C14.9107 29.6687 15.3047 29.8319 15.7156 29.8319C16.1264 29.8319 16.5204 29.6687 16.8109 29.3782L21.9997 24.1913L27.187 29.3799L27.187 29.38C27.4775 29.6705 27.8715 29.8337 28.2824 29.8337C28.6932 29.8337 29.0872 29.6705 29.3777 29.38C29.6682 29.0895 29.8314 28.6955 29.8314 28.2847C29.8314 27.8739 29.6682 27.4799 29.3778 27.1894C29.3777 27.1894 29.3777 27.1894 29.3777 27.1894L24.1905 22.0008L29.3795 16.8113C29.67 16.5208 29.8332 16.1268 29.8332 15.716C29.8332 15.3052 29.67 14.9112 29.3795 14.6207C29.0889 14.3302 28.6949 14.167 28.2841 14.167C27.8733 14.167 27.4793 14.3302 27.1888 14.6207L27.1888 14.6207Z" fill="#262424" stroke="#F8F8F8"/>
</svg>
