<svg width="44" height="44" viewBox="0 0 44 44" fill="none" xmlns="http://www.w3.org/2000/svg">
<path d="M25.9513 13.75C24.3637 13.75 22.9548 14.4004 22.0002 15.5183C21.0456 14.4004 19.6366 13.75 18.049 13.75C16.6663 13.7517 15.3407 14.3226 14.3629 15.3374C13.3852 16.3521 12.8352 17.7279 12.8335 19.163C12.8335 25.096 21.1949 29.8365 21.5505 30.0358C21.6887 30.1131 21.8432 30.1535 22.0002 30.1535C22.1571 30.1535 22.3116 30.1131 22.4498 30.0358C22.8054 29.8365 31.1668 25.096 31.1668 19.163C31.1652 17.7279 30.6151 16.3521 29.6374 15.3374C28.6597 14.3226 27.334 13.7517 25.9513 13.75ZM25.5175 25.4257C24.4169 26.395 23.2404 27.2674 22.0002 28.0338C20.7599 27.2674 19.5834 26.395 18.4828 25.4257C16.7704 23.9011 14.73 21.5759 14.73 19.163C14.73 18.2494 15.0797 17.3733 15.7022 16.7273C16.3246 16.0813 17.1688 15.7184 18.049 15.7184C19.4556 15.7184 20.6331 16.4893 21.1222 17.731C21.1934 17.9121 21.3149 18.067 21.4713 18.176C21.6277 18.285 21.8118 18.3433 22.0002 18.3433C22.1885 18.3433 22.3727 18.285 22.529 18.176C22.6854 18.067 22.8069 17.9121 22.8781 17.731C23.3673 16.4893 24.5447 15.7184 25.9513 15.7184C26.8316 15.7184 27.6757 16.0813 28.2982 16.7273C28.9206 17.3733 29.2703 18.2494 29.2703 19.163C29.2703 21.5759 27.2299 23.9011 25.5175 25.4257Z" fill="#262424"/>
</svg>
