<svg width="44" height="44" viewBox="0 0 44 44" fill="none" xmlns="http://www.w3.org/2000/svg">
<path d="M20.1667 29.3337H23.8333C23.8333 30.342 23.0083 31.167 22 31.167C20.9917 31.167 20.1667 30.342 20.1667 29.3337ZM30.25 27.5003V28.417H13.75V27.5003L15.5833 25.667V20.167C15.5833 17.3253 17.4167 14.8503 20.1667 14.0253V13.7503C20.1667 12.742 20.9917 11.917 22 11.917C23.0083 11.917 23.8333 12.742 23.8333 13.7503V14.0253C26.5833 14.8503 28.4167 17.3253 28.4167 20.167V25.667L30.25 27.5003ZM26.5833 20.167C26.5833 17.6003 24.5667 15.5837 22 15.5837C19.4333 15.5837 17.4167 17.6003 17.4167 20.167V26.5837H26.5833V20.167Z" fill="#262424"/>
</svg>
