<svg width="40" height="40" viewBox="0 0 40 40" fill="none" xmlns="http://www.w3.org/2000/svg">
<path d="M25.1019 9.7959C23.0519 9.7959 21.2325 10.6051 19.9998 11.9959C18.7672 10.6051 16.9478 9.7959 14.8978 9.7959C13.1123 9.79806 11.4006 10.5083 10.138 11.7708C8.87549 13.0334 8.16525 14.7451 8.16309 16.5306C8.16309 23.9122 18.96 29.8102 19.4192 30.0581C19.5976 30.1542 19.7971 30.2045 19.9998 30.2045C20.2025 30.2045 20.402 30.1542 20.5804 30.0581C21.0396 29.8102 31.8366 23.9122 31.8366 16.5306C31.8344 14.7451 31.1242 13.0334 29.8616 11.7708C28.5991 10.5083 26.8874 9.79806 25.1019 9.7959ZM24.5417 24.3224C23.1205 25.5284 21.6013 26.6138 19.9998 27.5673C18.3983 26.6138 16.8791 25.5284 15.458 24.3224C13.2468 22.4255 10.6121 19.5326 10.6121 16.5306C10.6121 15.394 11.0636 14.3039 11.8673 13.5001C12.671 12.6964 13.7611 12.2449 14.8978 12.2449C16.7141 12.2449 18.2345 13.2041 18.8661 14.749C18.9581 14.9742 19.115 15.1669 19.3169 15.3026C19.5188 15.4382 19.7566 15.5107 19.9998 15.5107C20.2431 15.5107 20.4808 15.4382 20.6827 15.3026C20.8846 15.1669 21.0416 14.9742 21.1335 14.749C21.7651 13.2041 23.2855 12.2449 25.1019 12.2449C26.2385 12.2449 27.3286 12.6964 28.1323 13.5001C28.936 14.3039 29.3876 15.394 29.3876 16.5306C29.3876 19.5326 26.7529 22.4255 24.5417 24.3224Z" fill="#262424"/>
</svg>
