<svg width="49" height="49" viewBox="0 0 49 49" fill="none" xmlns="http://www.w3.org/2000/svg">
<path d="M30.75 12C28.2387 12 26.01 12.9913 24.5 14.695C22.99 12.9913 20.7613 12 18.25 12C16.0628 12.0026 13.9659 12.8727 12.4193 14.4193C10.8727 15.9659 10.0026 18.0628 10 20.25C10 29.2925 23.2262 36.5175 23.7887 36.8213C24.0073 36.939 24.2517 37.0006 24.5 37.0006C24.7483 37.0006 24.9927 36.939 25.2113 36.8213C25.7738 36.5175 39 29.2925 39 20.25C38.9974 18.0628 38.1273 15.9659 36.5807 14.4193C35.0341 12.8727 32.9372 12.0026 30.75 12ZM30.0637 29.795C28.3228 31.2723 26.4618 32.6019 24.5 33.77C22.5382 32.6019 20.6772 31.2723 18.9362 29.795C16.2275 27.4713 13 23.9275 13 20.25C13 18.8576 13.5531 17.5223 14.5377 16.5377C15.5223 15.5531 16.8576 15 18.25 15C20.475 15 22.3375 16.175 23.1112 18.0675C23.2239 18.3434 23.4161 18.5795 23.6634 18.7457C23.9108 18.9118 24.202 19.0006 24.5 19.0006C24.798 19.0006 25.0892 18.9118 25.3366 18.7457C25.5839 18.5795 25.7761 18.3434 25.8888 18.0675C26.6625 16.175 28.525 15 30.75 15C32.1424 15 33.4777 15.5531 34.4623 16.5377C35.4469 17.5223 36 18.8576 36 20.25C36 23.9275 32.7725 27.4713 30.0637 29.795Z" fill="#262424"/>
</svg>
