<svg width="44" height="44" viewBox="0 0 44 44" fill="none" xmlns="http://www.w3.org/2000/svg">
<path d="M21.9998 29.3337C21.4957 29.3337 21.0639 29.154 20.7046 28.7947C20.3453 28.4353 20.1659 28.0039 20.1665 27.5003C20.1665 26.9962 20.3462 26.5644 20.7055 26.2051C21.0648 25.8457 21.4963 25.6664 21.9998 25.667C22.504 25.667 22.9358 25.8467 23.2951 26.206C23.6544 26.5653 23.8338 26.9968 23.8332 27.5003C23.8332 28.0045 23.6535 28.4362 23.2942 28.7956C22.9348 29.1549 22.5034 29.3343 21.9998 29.3337ZM21.9998 23.8337C21.4957 23.8337 21.0639 23.654 20.7046 23.2947C20.3453 22.9353 20.1659 22.5039 20.1665 22.0003C20.1665 21.4962 20.3462 21.0644 20.7055 20.7051C21.0648 20.3457 21.4963 20.1664 21.9998 20.167C22.504 20.167 22.9358 20.3467 23.2951 20.706C23.6544 21.0653 23.8338 21.4968 23.8332 22.0003C23.8332 22.5045 23.6535 22.9362 23.2942 23.2956C22.9348 23.6549 22.5034 23.8343 21.9998 23.8337ZM21.9998 18.3337C21.4957 18.3337 21.0639 18.154 20.7046 17.7947C20.3453 17.4353 20.1659 17.0039 20.1665 16.5003C20.1665 15.9962 20.3462 15.5644 20.7055 15.2051C21.0648 14.8457 21.4963 14.6664 21.9998 14.667C22.504 14.667 22.9358 14.8467 23.2951 15.206C23.6544 15.5653 23.8338 15.9968 23.8332 16.5003C23.8332 17.0045 23.6535 17.4362 23.2942 17.7956C22.9348 18.1549 22.5034 18.3343 21.9998 18.3337Z" fill="#262424"/>
</svg>
