<svg width="32" height="32" viewBox="0 0 32 32" fill="none" xmlns="http://www.w3.org/2000/svg">
<path fill-rule="evenodd" clip-rule="evenodd" d="M12.9097 9.4821C13.6781 9.16382 14.5017 9 15.3334 9C16.1651 9 16.9887 9.16382 17.7571 9.4821C18.5255 9.80039 19.2237 10.2669 19.8118 10.855C20.3999 11.4431 20.8664 12.1413 21.1847 12.9097C21.503 13.6781 21.6668 14.5017 21.6668 15.3334C21.6668 16.1651 21.503 16.9887 21.1847 17.7571C20.9949 18.2154 20.7524 18.6487 20.4627 19.0485L22.7071 21.2929C23.0976 21.6834 23.0976 22.3166 22.7071 22.7071C22.3166 23.0976 21.6834 23.0976 21.2929 22.7071L19.0485 20.4628C17.9748 21.2405 16.6761 21.6668 15.3334 21.6668C13.6537 21.6668 12.0428 20.9996 10.855 19.8118C9.66727 18.6241 9 17.0131 9 15.3334C9 13.6537 9.66727 12.0428 10.855 10.855C11.4431 10.2669 12.1413 9.80039 12.9097 9.4821ZM15.3334 11C14.7643 11 14.2008 11.1121 13.6751 11.3299C13.1493 11.5476 12.6716 11.8668 12.2692 12.2692C11.4566 13.0819 11 14.1841 11 15.3334C11 16.4827 11.4566 17.5849 12.2692 18.3976C13.0819 19.2103 14.1841 19.6668 15.3334 19.6668C16.4827 19.6668 17.5849 19.2103 18.3976 18.3976C18.8 17.9952 19.1192 17.5175 19.337 16.9917C19.5547 16.466 19.6668 15.9025 19.6668 15.3334C19.6668 14.7643 19.5547 14.2008 19.337 13.6751C19.1192 13.1493 18.8 12.6716 18.3976 12.2692C17.9952 11.8668 17.5175 11.5476 16.9917 11.3299C16.466 11.1121 15.9025 11 15.3334 11Z" fill="#262424"/>
</svg>
