<svg width="48" height="48" viewBox="0 0 48 48" fill="none" xmlns="http://www.w3.org/2000/svg">
<path d="M27.1561 23.8832C27.9932 23.0461 28.4635 21.9107 28.4635 20.7269C28.4635 19.5431 27.9932 18.4077 27.1561 17.5706C26.319 16.7336 25.1837 16.2633 23.9999 16.2633C22.816 16.2633 21.6807 16.7336 20.8436 17.5706C20.0065 18.4077 19.5362 19.5431 19.5362 20.7269C19.5362 21.9107 20.0065 23.0461 20.8436 23.8832C21.6807 24.7203 22.816 25.1906 23.9999 25.1906C25.1837 25.1906 26.319 24.7203 27.1561 23.8832ZM26.0817 20.7269C26.0817 21.2791 25.8624 21.8086 25.4719 22.199C25.0815 22.5894 24.552 22.8087 23.9999 22.8087C23.4477 22.8087 22.9182 22.5894 22.5278 22.199C22.1374 21.8086 21.918 21.2791 21.918 20.7269C21.918 20.1748 22.1374 19.6453 22.5278 19.2548C22.9182 18.8644 23.4477 18.6451 23.9999 18.6451C24.552 18.6451 25.0815 18.8644 25.4719 19.2548C25.8624 19.6453 26.0817 20.1748 26.0817 20.7269Z" fill="#262424" stroke="#262424" stroke-width="0.2"/>
<path d="M24.0709 26.0818C22.5443 26.0805 21.0381 26.4321 19.6699 27.1093C18.3406 27.7671 17.1766 28.7149 16.2633 29.8821C15.0204 28.2489 14.2818 26.2106 14.2818 24C14.282 22.4569 14.6496 20.9361 15.3543 19.5633C16.059 18.1906 17.0804 17.0053 18.3341 16.1057C19.5877 15.206 21.0376 14.6178 22.5637 14.3898C24.0898 14.1617 25.6483 14.3004 27.1102 14.7942C28.5721 15.2881 29.8954 16.1229 30.9706 17.2297C32.0458 18.3365 32.842 19.6834 33.2933 21.159C33.7446 22.6346 33.838 24.1965 33.5658 25.7154C33.3012 27.1919 32.6985 28.5865 31.8056 29.7904C30.8911 28.6494 29.7348 27.7247 28.4194 27.0833C27.065 26.4229 25.5777 26.0804 24.0709 26.0818ZM24.0709 26.0818C24.0709 26.0818 24.071 26.0818 24.071 26.0818L24.0709 26.1816L24.0708 26.0818C24.0708 26.0818 24.0709 26.0818 24.0709 26.0818ZM24.0001 33.7182L23.9999 33.7182C21.8002 33.7215 19.666 32.9754 17.9483 31.6044C18.6362 30.6451 19.5404 29.8606 20.5882 29.3149C21.6636 28.7548 22.8583 28.4628 24.0708 28.4636H24.071C25.2683 28.4627 26.4487 28.7474 27.5139 29.2942C28.5514 29.8267 29.4507 30.5929 30.141 31.5318C28.4092 32.9481 26.2392 33.7213 24.0001 33.7182ZM24 11.9C17.3175 11.9 11.9 17.3175 11.9 24C11.9 30.6825 17.3175 36.1 24 36.1C30.6825 36.1 36.1 30.6825 36.1 24C36.1 17.3175 30.6825 11.9 24 11.9Z" fill="#262424" stroke="#262424" stroke-width="0.2"/>
</svg>
