<svg width="40" height="40" viewBox="0 0 40 40" fill="none" xmlns="http://www.w3.org/2000/svg">
<path d="M13.7502 14.1668L15.4168 12.0835H15.8335L17.0835 11.2502L20.4168 10.8335L24.5835 12.0835L27.5002 15.0002L29.1668 17.9168L28.3335 25.0002L25.8335 25.4168L22.5002 22.9168L17.0835 23.3335L13.3335 26.2502L11.2502 23.3335L10.8335 18.3335L12.0835 15.4168L13.7502 14.1668Z" fill="#262424"/>
<path d="M20.0591 21.7182C18.7844 21.7171 17.5267 22.0107 16.3842 22.5761C15.2807 23.1222 14.3136 23.9077 13.553 24.8745C12.5272 23.5192 11.9182 21.8306 11.9182 20C11.9183 18.7168 12.2241 17.452 12.8101 16.3104C13.3961 15.1688 14.2455 14.1831 15.2881 13.4349C16.3307 12.6868 17.5364 12.1976 18.8056 12.008C20.0747 11.8183 21.3708 11.9336 22.5865 12.3443C23.8023 12.755 24.9027 13.4493 25.7969 14.3697C26.691 15.2902 27.3532 16.4103 27.7285 17.6374C28.1038 18.8645 28.1815 20.1634 27.9551 21.4265C27.7363 22.6474 27.2396 23.8009 26.5042 24.7981C25.7426 23.8531 24.782 23.0868 23.6901 22.5545C22.5592 22.003 21.3173 21.717 20.0591 21.7182ZM20.0591 21.7182C20.0591 21.7182 20.059 21.7182 20.059 21.7182L20.0591 21.8182L20.0592 21.7182C20.0591 21.7182 20.0591 21.7182 20.0591 21.7182ZM20.0001 28.0818H19.9998C18.1759 28.0846 16.406 27.4677 14.9797 26.3338C15.5503 25.5424 16.2984 24.895 17.1645 24.4439C18.0583 23.9784 19.0513 23.7356 20.059 23.7364H20.0592C21.0543 23.7356 22.0353 23.9722 22.9206 24.4266C23.7783 24.8668 24.5222 25.4991 25.0947 26.2736C23.6565 27.445 21.8569 28.0844 20.0001 28.0818ZM20 9.9C14.422 9.9 9.9 14.422 9.9 20C9.9 25.578 14.422 30.1 20 30.1C25.578 30.1 30.1 25.578 30.1 20C30.1 14.422 25.578 9.9 20 9.9Z" fill="#262424" stroke="#262424" stroke-width="0.2"/>
<path d="M22.6417 19.9146C23.3424 19.2139 23.736 18.2635 23.736 17.2726C23.736 16.2816 23.3424 15.3313 22.6417 14.6306C21.9409 13.9299 20.9906 13.5362 19.9996 13.5362C19.0087 13.5362 18.0583 13.9299 17.3576 14.6306C16.6569 15.3313 16.2633 16.2816 16.2633 17.2726C16.2633 18.2635 16.6569 19.2139 17.3576 19.9146C18.0583 20.6153 19.0087 21.009 19.9996 21.009C20.9906 21.009 21.9409 20.6153 22.6417 19.9146Z" fill="white" stroke="white" stroke-width="0.2"/>
</svg>
