<svg width="44" height="44" viewBox="0 0 44 44" fill="none" xmlns="http://www.w3.org/2000/svg">
<path d="M25.9513 13.75C24.3637 13.75 22.9548 14.4004 22.0002 15.5183C21.0456 14.4004 19.6366 13.75 18.049 13.75C16.6663 13.7517 15.3407 14.3226 14.3629 15.3374C13.3852 16.3521 12.8352 17.7279 12.8335 19.163C12.8335 25.096 21.1949 29.8365 21.5505 30.0358C21.6887 30.1131 21.8432 30.1535 22.0002 30.1535C22.1571 30.1535 22.3116 30.1131 22.4498 30.0358C22.8054 29.8365 31.1668 25.096 31.1668 19.163C31.1652 17.7279 30.6151 16.3521 29.6374 15.3374C28.6597 14.3226 27.334 13.7517 25.9513 13.75Z" fill="#FF3427"/>
</svg>
