<svg width="40" height="40" viewBox="0 0 40 40" fill="none" xmlns="http://www.w3.org/2000/svg">
<rect x="10.8335" y="10.8335" width="18.3333" height="17.5" fill="#262424"/>
<path d="M30 12.2222V27.7778C30 29 29 30 27.7778 30H12.2222C11 30 10 29 10 27.7778V12.2222C10 11 11 10 12.2222 10H27.7778C29 10 30 11 30 12.2222ZM27.7778 12.2222H12.2222V27.7778H27.7778V12.2222Z" fill="#262424"/>
<path d="M25.5554 23.3332H18.8888V25.5554H25.5554V23.3332Z" fill="white"/>
<path d="M14.4443 14.4443H16.6666V16.6666H14.4443V14.4443Z" fill="white"/>
<path d="M25.5554 21.111H18.8888V18.8888H25.5554V21.111Z" fill="white"/>
<path d="M25.5554 16.6666H18.8888V14.4443H25.5554V16.6666Z" fill="white"/>
<path d="M14.4443 18.8888H16.6666V21.111H14.4443V18.8888Z" fill="white"/>
<path d="M14.4443 23.3332H16.6666V25.5554H14.4443V23.3332Z" fill="white"/>
</svg>
