<svg width="48" height="48" viewBox="0 0 48 48" fill="none" xmlns="http://www.w3.org/2000/svg">
<rect x="13" y="13" width="22" height="21" fill="#262424"/>
<path d="M36 14.6667V33.3333C36 34.8 34.8 36 33.3333 36H14.6667C13.2 36 12 34.8 12 33.3333V14.6667C12 13.2 13.2 12 14.6667 12H33.3333C34.8 12 36 13.2 36 14.6667ZM33.3333 14.6667H14.6667V33.3333H33.3333V14.6667Z" fill="#262424"/>
<path d="M30.6668 27.9997H22.6668V30.6663H30.6668V27.9997Z" fill="white"/>
<path d="M17.3335 17.333H20.0002V19.9997H17.3335V17.333Z" fill="white"/>
<path d="M30.6668 25.333H22.6668V22.6663H30.6668V25.333Z" fill="white"/>
<path d="M30.6668 19.9997H22.6668V17.333H30.6668V19.9997Z" fill="white"/>
<path d="M17.3335 22.6663H20.0002V25.333H17.3335V22.6663Z" fill="white"/>
<path d="M17.3335 27.9997H20.0002V30.6663H17.3335V27.9997Z" fill="white"/>
</svg>
