<svg width="40" height="40" viewBox="0 0 40 40" fill="none" xmlns="http://www.w3.org/2000/svg">
<path d="M12.0835 17.9165L20.0002 11.6665L27.5002 17.4998L27.0835 19.1665L26.6668 28.7498L13.7502 29.1665L13.3335 27.9165V19.9998L12.0835 17.9165Z" fill="#262424"/>
<path fill-rule="evenodd" clip-rule="evenodd" d="M18.7719 11.2646C19.123 10.9852 19.5551 10.8335 19.9999 10.8335C20.4447 10.8335 20.8768 10.9852 21.2279 11.2646L29.6117 17.9354C30.3647 18.536 29.9487 19.7689 28.9967 19.7689H27.9997V27.9539C27.9997 28.4966 27.789 29.0171 27.414 29.4008C27.0389 29.7846 26.5302 30.0002 25.9998 30.0002H14C13.4696 30.0002 12.9609 29.7846 12.5858 29.4008C12.2108 29.0171 12.0001 28.4966 12.0001 27.9539V19.7689H11.0031C10.0501 19.7689 9.63611 18.535 10.3881 17.9365L18.7719 11.2646ZM13.625 17.9528C13.854 18.1421 14 18.4316 14 18.756V27.9539H25.9998V18.756C25.9998 18.4316 26.1458 18.1421 26.3748 17.9528L19.9999 12.8802L13.625 17.9528Z" fill="#262424"/>
<path d="M16 20.7922C16 20.2271 16.4477 19.769 17 19.769H22.9999C23.5521 19.769 23.9998 20.2271 23.9998 20.7922C23.9998 21.3572 23.5521 21.8153 22.9999 21.8153H17C16.4477 21.8153 16 21.3572 16 20.7922Z" fill="white"/>
<path d="M16 23.8616C16 23.2965 16.4477 22.8384 17 22.8384H22.9999C23.5521 22.8384 23.9998 23.2965 23.9998 23.8616C23.9998 24.4266 23.5521 24.8847 22.9999 24.8847H17C16.4477 24.8847 16 24.4266 16 23.8616Z" fill="white"/>
</svg>
