<svg width="48" height="48" viewBox="0 0 48 48" fill="none" xmlns="http://www.w3.org/2000/svg">
<path d="M14.5 21.5L24 14L33 21L32.5 23L32 34.5L16.5 35L16 33.5V24L14.5 21.5Z" fill="#262424"/>
<path fill-rule="evenodd" clip-rule="evenodd" d="M22.5263 13.5174C22.9476 13.182 23.4661 13 23.9999 13C24.5336 13 25.0522 13.182 25.4735 13.5174L35.534 21.5223C36.4376 22.243 35.9384 23.7225 34.7961 23.7225H33.5997V33.5445C33.5997 34.1957 33.3468 34.8203 32.8968 35.2808C32.4467 35.7413 31.8362 36 31.1997 36H16.8C16.1635 36 15.5531 35.7413 15.103 35.2808C14.6529 34.8203 14.4001 34.1957 14.4001 33.5445V23.7225H13.2037C12.0601 23.7225 11.5633 22.2418 12.4657 21.5235L22.5263 13.5174ZM16.35 21.5432C16.6248 21.7703 16.8 22.1178 16.8 22.507V33.5445H31.1997V22.507C31.1997 22.1178 31.3749 21.7703 31.6497 21.5432L23.9999 15.456L16.35 21.5432Z" fill="#262424"/>
<path d="M19.2002 24.9504C19.2002 24.2723 19.7374 23.7227 20.4002 23.7227H27.6C28.2628 23.7227 28.8 24.2723 28.8 24.9504C28.8 25.6285 28.2628 26.1782 27.6 26.1782H20.4002C19.7374 26.1782 19.2002 25.6285 19.2002 24.9504Z" fill="white"/>
<path d="M19.2002 28.6337C19.2002 27.9556 19.7374 27.4059 20.4002 27.4059H27.6C28.2628 27.4059 28.8 27.9556 28.8 28.6337C28.8 29.3117 28.2628 29.8614 27.6 29.8614H20.4002C19.7374 29.8614 19.2002 29.3117 19.2002 28.6337Z" fill="white"/>
</svg>
